<svg xmlns="http://www.w3.org/2000/svg" viewBox="0 -960 1024 1024"><path transform="scale(1,-1)" d="M512 864Q426 864 350 831Q274 799 217.5 742.5Q161 686 129 610Q96 534 96 448Q96 362 129 286Q161 210 217.5 153.5Q274 97 350 65Q426 32 512 32Q598 32 674 65Q750 97 806.5 153.5Q863 210 895 286Q928 362 928 448Q928 534 895 610Q862 686 806.0 742.0Q750 798 674 831Q598 864 512 864ZM512 96Q439 96 375 124Q311 151 263.0 199.0Q215 247 188 311Q160 375 160 448Q160 521 188 585Q215 649 263.0 697.0Q311 745 375 772Q439 800 512 800Q585 800 649 772Q713 745 761.0 697.0Q809 649 836 585Q864 521 864 448Q864 375 836 311Q809 247 761.0 199.0Q713 151 649 124Q585 96 512 96ZM800 448Q800 388 777 336Q755 283 716.0 244.0Q677 205 624 183Q572 160 512 160Q452 160 400 183Q347 205 308.0 244.0Q269 283 247 336Q224 388 224 448Q224 508 247 560Q269 613 308.0 652.0Q347 691 400 713Q452 736 512 736Q572 736 624 713Q676 691 715.5 651.5Q755 612 777 560Q800 508 800 448Z"/></svg>
