<svg xmlns="http://www.w3.org/2000/svg" viewBox="0 -960 1024 1024"><path transform="scale(1,-1)" d="M960 736V480Q960 480 960.0 480.0Q960 480 960 480Q960 467 950.5 457.5Q941 448 928 448Q921 448 915.5 450.5Q910 453 905 457L800 563L567 329Q562 325 556.5 322.5Q551 320 544 320Q537 320 531.5 322.5Q526 325 521 329L384 467L119 201Q114 197 108.5 194.5Q103 192 96 192Q83 192 73.5 201.5Q64 211 64 224Q64 231 66.5 236.5Q69 242 73 247L361 535Q366 539 371.5 541.5Q377 544 384 544Q391 544 396.5 541.5Q402 539 407 535L544 397L755 608L649 713Q645 718 642.5 723.5Q640 729 640 736Q640 749 649.5 758.5Q659 768 672 768Q672 768 672.0 768.0Q672 768 672 768H928Q941 768 950.5 758.5Q960 749 960 736Z"/></svg>
